HIERARCHY
ROOT Hips
{
	OFFSET 0.000000 89.005402 0.000000
	CHANNELS 6 Xposition Yposition Zposition Xrotation Yrotation Zrotation
	JOINT Spine
	{
		OFFSET 0.116900 10.681000 0.373400
		CHANNELS 3 Xrotation Yrotation Zrotation
		JOINT Spine1
		{
			OFFSET 0.000000 13.840401 0.053500
			CHANNELS 3 Xrotation Yrotation Zrotation
			JOINT Spine2
			{
				OFFSET 0.000000 14.712700 -0.366200
				CHANNELS 3 Xrotation Yrotation Zrotation
				JOINT Neck
				{
					OFFSET 0.000000 35.415497 -3.314200
					CHANNELS 3 Xrotation Yrotation Zrotation
					JOINT Head
					{
						OFFSET 0.000000 16.899200 1.218300
						CHANNELS 3 Xrotation Yrotation Zrotation
						JOINT HeadTop_End
						{
							OFFSET 0.000000 22.206207 2.192500
							CHANNELS 3 Xrotation Yrotation Zrotation
							End Site
							{
								OFFSET 0.000000 22.314178 0.000000
							}
						}
					}
				}
				JOINT LeftShoulder
				{
					OFFSET 12.896400 26.716293 -4.548400
					CHANNELS 3 Xrotation Yrotation Zrotation
					JOINT LeftArm
					{
						OFFSET 19.027000 -4.857010 -1.718400
						CHANNELS 3 Xrotation Yrotation Zrotation
						JOINT LeftForeArm
						{
							OFFSET 24.179897 0.000000 0.000000
							CHANNELS 3 Xrotation Yrotation Zrotation
							JOINT LeftHand
							{
								OFFSET 27.156403 0.000000 0.000000
								CHANNELS 3 Xrotation Yrotation Zrotation
								JOINT LeftHandIndex1
								{
									OFFSET 16.441200 0.000000 0.000000
									CHANNELS 3 Xrotation Yrotation Zrotation
									JOINT LeftHandIndex2
									{
										OFFSET 4.821899 0.000000 0.000000
										CHANNELS 3 Xrotation Yrotation Zrotation
										JOINT LeftHandIndex3
										{
											OFFSET 6.386497 0.000000 0.000000
											CHANNELS 3 Xrotation Yrotation Zrotation
											JOINT LeftHandIndex4
											{
												OFFSET 5.188988 0.000000 0.000000
												CHANNELS 3 Xrotation Yrotation Zrotation
												End Site
												{
													OFFSET -0.178703 5.185913 0.000177
												}
											}
										}
									}
								}
								JOINT LeftHandThumb1
								{
									OFFSET 6.534897 -5.032593 5.900300
									CHANNELS 3 Xrotation Yrotation Zrotation
									JOINT LeftHandThumb2
									{
										OFFSET 3.818176 -2.204422 2.204423
										CHANNELS 3 Xrotation Yrotation Zrotation
										JOINT LeftHandThumb3
										{
											OFFSET 3.252098 -1.877594 1.877601
											CHANNELS 3 Xrotation Yrotation Zrotation
											JOINT LeftHandThumb4
											{
												OFFSET 5.251778 -3.032120 3.032117
												CHANNELS 3 Xrotation Yrotation Zrotation
												End Site
												{
													OFFSET 0.000023 6.780014 0.000000
												}
											}
										}
									}
								}
							}
						}
					}
				}
				JOINT RightShoulder
				{
					OFFSET -12.896300 26.716293 -4.548400
					CHANNELS 3 Xrotation Yrotation Zrotation
					JOINT RightArm
					{
						OFFSET -19.027000 -4.857010 -1.718400
						CHANNELS 3 Xrotation Yrotation Zrotation
						JOINT RightForeArm
						{
							OFFSET -24.179897 0.000000 0.000000
							CHANNELS 3 Xrotation Yrotation Zrotation
							JOINT RightHand
							{
								OFFSET -27.156403 0.000000 0.000000
								CHANNELS 3 Xrotation Yrotation Zrotation
								JOINT RightHandThumb1
								{
									OFFSET -6.591202 -4.852203 5.988100
									CHANNELS 3 Xrotation Yrotation Zrotation
									JOINT RightHandThumb2
									{
										OFFSET -3.818176 -2.204422 2.204423
										CHANNELS 3 Xrotation Yrotation Zrotation
										JOINT RightHandThumb3
										{
											OFFSET -3.252098 -1.877594 1.877601
											CHANNELS 3 Xrotation Yrotation Zrotation
											JOINT RightHandThumb4
											{
												OFFSET -5.251778 -3.032120 3.032117
												CHANNELS 3 Xrotation Yrotation Zrotation
												End Site
												{
													OFFSET -0.000023 6.780014 0.000000
												}
											}
										}
									}
								}
								JOINT RightHandIndex1
								{
									OFFSET -16.029404 0.000000 0.000000
									CHANNELS 3 Xrotation Yrotation Zrotation
									JOINT RightHandIndex2
									{
										OFFSET -5.213303 0.000000 0.000000
										CHANNELS 3 Xrotation Yrotation Zrotation
										JOINT RightHandIndex3
										{
											OFFSET -6.386528 0.000000 0.000000
											CHANNELS 3 Xrotation Yrotation Zrotation
											JOINT RightHandIndex4
											{
												OFFSET -5.189026 0.000000 0.000000
												CHANNELS 3 Xrotation Yrotation Zrotation
												End Site
												{
													OFFSET 0.236702 5.183624 0.001972
												}
											}
										}
									}
								}
							}
						}
					}
				}
			}
		}
	}
	JOINT LeftUpLeg
	{
		OFFSET 14.073000 -7.904099 -1.463000
		CHANNELS 3 Xrotation Yrotation Zrotation
		JOINT LeftLeg
		{
			OFFSET -0.109806 -34.073280 4.093200
			CHANNELS 3 Xrotation Yrotation Zrotation
			JOINT LeftFoot
			{
				OFFSET 0.109806 -29.899420 -6.319000
				CHANNELS 3 Xrotation Yrotation Zrotation
				JOINT LeftToeBase
				{
					OFFSET 1.551100 -14.988700 20.535801
					CHANNELS 3 Xrotation Yrotation Zrotation
					JOINT LeftToe_End
					{
						OFFSET 0.221200 0.570800 13.248301
						CHANNELS 3 Xrotation Yrotation Zrotation
						End Site
						{
							OFFSET 0.000000 13.262435 0.000000
						}
					}
				}
			}
		}
	}
	JOINT RightUpLeg
	{
		OFFSET -13.839300 -7.904099 -1.463000
		CHANNELS 3 Xrotation Yrotation Zrotation
		JOINT RightLeg
		{
			OFFSET 0.109694 -34.073219 4.093300
			CHANNELS 3 Xrotation Yrotation Zrotation
			JOINT RightFoot
			{
				OFFSET -0.109694 -29.899384 -6.319200
				CHANNELS 3 Xrotation Yrotation Zrotation
				JOINT RightToeBase
				{
					OFFSET -1.551100 -14.988700 20.535801
					CHANNELS 3 Xrotation Yrotation Zrotation
					JOINT RightToe_End
					{
						OFFSET -0.221200 0.570900 13.248299
						CHANNELS 3 Xrotation Yrotation Zrotation
						End Site
						{
							OFFSET 0.000000 13.262440 0.000000
						}
					}
				}
			}
		}
	}
}
MOTION
Frames: 4
Frame Time: 0.033333
23.799164 61.861706 70.124405 85.425313 -22.591522 238.512064 3.111687 -3.829589 7.578225 7.028617 -1.396478 -3.062820 6.997462 -1.430943 -3.068867 1.452093 1.395755 -4.848733 2.576912 -8.024867 10.577313 0.000002 -0.000000 0.000000 7.732098 -22.705248 12.263894 -67.646221 -34.761490 -14.860490 -0.000003 0.000005 -0.000000 -66.634731 -14.302296 50.415508 0.393522 3.991301 -5.825301 0.012411 0.381584 -3.726250 0.010209 0.346086 -3.379229 -0.000000 -0.000002 -0.000000 -32.107592 9.478127 -5.824186 5.535425 5.109499 1.475682 -7.814385 -1.955949 13.911915 -0.000000 -0.000001 0.000001 11.439656 -17.282052 -39.314507 -104.787745 55.624992 20.959641 0.000002 9.089842 -0.000003 16.980351 5.709843 -45.975844 -23.361583 15.266077 -9.422029 6.768825 -16.846937 -2.630370 -5.417823 -7.304631 -15.465777 -0.000003 0.000001 -0.000000 0.627209 3.813713 0.105475 0.000005 -0.006101 0.074990 0.004593 0.207009 -2.542148 -0.000000 -0.000004 -0.000000 -92.542636 -18.793281 30.993148 17.586262 6.766672 10.197992 3.109314 28.725621 -14.399521 -2.812613 0.000025 -0.000014 0.000001 -0.000002 0.000003 -92.164257 11.946509 -43.153658 35.665773 -9.083994 8.999930 -23.128576 -19.239589 26.021038 -19.650324 0.000014 0.000009 -0.000000 0.000000 0.000000 
20.486794 60.478516 69.406258 85.793774 -9.856685 248.650960 7.855839 -4.167909 3.199711 6.365516 -1.306615 -2.417692 6.350513 -1.321283 -2.402913 0.997473 0.955596 -3.962834 4.633122 -9.818177 9.185470 -0.000000 0.000002 0.000002 7.201291 -22.512377 9.920552 -62.881604 -25.473192 -14.648362 0.000005 -2.353730 0.000007 -72.601339 -12.594778 43.269296 0.579491 4.632390 -17.274269 0.001012 0.108756 -1.061276 0.000538 -0.079562 0.776198 -0.000001 0.000000 0.000001 -27.105613 21.916653 -7.692539 6.519136 12.891400 2.298659 -7.373637 1.035942 14.675389 -0.000001 -0.000001 -0.000001 6.983417 -13.016042 -39.794482 -90.992811 43.908093 17.826423 -0.000017 34.942479 0.000013 15.187709 2.931493 -20.421478 -31.489361 13.145210 2.069506 7.618600 -22.115096 -3.644970 -5.639748 -7.352235 -16.204783 0.000000 -0.000000 0.000001 0.197151 -3.207904 5.545819 0.032454 -0.549508 6.761159 0.019253 -0.423518 5.206352 -0.000001 -0.000001 -0.000000 -91.185566 -8.757305 36.944592 18.926936 -4.963459 10.246663 -8.289578 27.567892 -31.178048 -4.556878 0.000023 0.000002 -0.000000 -0.000001 -0.000000 -91.478411 11.703554 -39.563888 34.313877 -8.389585 8.659693 -11.242787 -23.753197 34.334022 -9.708583 0.000018 -0.000007 -0.000000 0.000000 0.000000 
16.500511 59.567177 68.096268 83.124113 2.560524 258.849580 12.240140 -4.842668 -1.232978 5.534816 -1.346996 -1.608307 5.534621 -1.348622 -1.567494 0.357715 0.637846 -2.913095 4.948106 -10.693737 9.642559 0.000000 0.000001 -0.000000 6.784715 -19.853377 8.019825 -61.671663 -13.671547 -17.026296 -0.000001 -7.245606 0.000011 -76.613761 -7.104609 32.321138 0.661366 4.802694 -27.591384 0.033000 0.621664 -6.077980 0.014464 0.411820 -4.022146 -0.000002 -0.000001 0.000002 -22.246037 23.471127 -11.040174 7.766601 23.816315 3.274826 -7.697020 -1.306884 14.005772 0.000000 0.000000 0.000001 2.567117 -10.069210 -40.222093 -82.235170 26.558730 20.263185 0.000046 62.021902 -0.000032 13.257202 1.668806 -1.600766 -29.113422 0.177907 11.109508 8.055531 -25.720177 -4.049082 -6.289494 -2.434708 -15.299803 0.000000 -0.000000 -0.000001 0.654539 -4.785350 19.055992 0.172801 -1.258171 15.640553 0.184476 -1.299107 16.163670 -0.000002 -0.000000 0.000001 -90.420763 -2.504571 43.944085 35.555284 -11.358085 8.903030 -20.957522 26.807762 -37.396758 -5.220186 -0.000014 -0.000002 0.000000 -0.000000 0.000001 -92.244471 11.823998 -36.549835 32.084438 -7.500989 7.543272 0.691667 -21.237568 36.759057 -4.011764 -0.000026 0.000005 0.000000 -0.000002 0.000001 
12.837975 58.993210 67.094864 80.170739 12.133973 268.024983 15.155474 -6.257286 -3.662974 4.889977 -1.634679 -0.949571 4.906343 -1.621448 -0.878367 -0.472490 0.509951 -2.088680 2.954718 -10.864135 11.870180 0.000000 -0.000002 0.000001 6.743995 -17.454951 6.637341 -62.837754 -5.120789 -18.353833 -0.000017 -12.555510 0.000014 -76.537788 -0.014807 20.245815 0.490018 4.416230 -28.437283 0.184008 1.458214 -14.383373 0.162161 1.370203 -13.497865 0.000000 0.000000 0.000000 -22.063321 17.966000 -13.025917 8.050601 26.546275 3.472566 -8.526326 -6.460288 12.567949 -0.000000 0.000000 0.000003 0.281684 -9.509698 -39.985071 -78.121948 9.662775 18.930446 0.000056 76.753158 -0.000076 9.112640 1.841509 9.233451 -24.367890 -9.491304 12.227376 7.909381 -25.530366 -3.786936 -6.483246 -0.188104 -14.486346 -0.000001 0.000000 0.000000 0.237263 -3.308418 22.091998 0.203131 -1.361784 16.966656 0.205743 -1.370322 17.076542 -0.000000 0.000001 -0.000002 -86.749235 2.455073 47.700409 49.457014 -11.850889 8.601395 -29.131542 26.379174 -35.863667 -5.044727 -0.000019 -0.000002 0.000000 -0.000002 0.000000 -93.903626 12.051158 -35.323638 27.929171 -2.694597 6.193651 9.500949 -14.799789 37.048223 -3.391223 -0.000003 0.000001 0.000000 0.000001 -0.000000 
